<svg id="Ebene_1" data-name="Ebene 1" xmlns="http://www.w3.org/2000/svg" viewBox="0 0 600 442.08"><defs><style>.cls-1{fill:#00c1d4;}</style></defs><polygon class="cls-1" points="0 0 0 22.73 30.08 22.73 30.08 105.62 55.84 105.62 55.84 22.73 85.91 22.73 85.91 0 0 0"/><polygon class="cls-1" points="255.03 0 255.03 41.52 220.64 41.52 220.64 0 194.88 0 194.88 105.62 220.64 105.62 220.64 64.25 255.03 64.25 255.03 105.62 280.79 105.62 280.79 0 255.03 0"/><polygon class="cls-1" points="353.75 0 353.75 41.52 319.35 41.52 319.35 0 293.6 0 293.6 105.62 319.35 105.62 319.35 64.25 353.75 64.25 353.75 105.62 379.5 105.62 379.5 0 353.75 0"/><path class="cls-1" d="M339.35,386.33a42.85,42.85,0,0,1-43-42.63V279.2H322v64.5a17.36,17.36,0,0,0,34.71,0V279.2h25.6v64.5a42.85,42.85,0,0,1-43,42.63" transform="translate(-200.24 -279.2)"/><path class="cls-1" d="M771,439.57c10.91,0,19.43,7.28,20.91,17.62H750.23c1.71-10.45,9.89-17.62,20.8-17.62m29.21,21.6c0-16.71-12.28-28.75-29.32-28.75s-29.44,12-29.44,28.75S753.87,490,770.92,490c13.75,0,25.46-9,28.52-21.36h-8.86A20.21,20.21,0,0,1,771,482.88a20.6,20.6,0,0,1-21-19h50a22.51,22.51,0,0,0,.23-2.72m-92.62-28.75c-8.53,0-15.23,4-18.76,10.79V410.6h-8.75V489h8.75v-32.5c0-10.46,6.37-17.16,16.26-17.16s16,6.7,16,17.16V489h8.64V455.49c0-14-9-23.07-22.16-23.07M668,466.17h-8.75a20,20,0,0,1-19.89,16.25c-11.93,0-20.57-8.86-20.57-21.25S627.42,440,639.35,440a20,20,0,0,1,19.89,16.14H668c-1.82-13.75-13.87-23.75-28.64-23.75-17.05,0-29.43,12-29.43,28.75S622.3,490,639.35,490c14.77,0,26.82-10,28.64-23.86m-89-33.75c-12.28,0-20.69,6.25-20.69,15.79,0,12.62,11.94,14.89,20.46,16.37,7.16,1.36,13.64,2.38,13.64,9.54,0,5.57-5.34,9.32-13,9.32-8.07,0-13.64-4.09-13.86-10.23h-8.52c.22,9.89,9.2,16.82,22.16,16.82s21.7-6.7,21.7-16.36c0-12.84-12.73-15-20.91-16.59-7.16-1.48-13.07-2.62-13.07-9.66,0-5.12,4.89-8.53,11.94-8.53,7.38,0,12.38,3.87,12.61,9.66h8.07c0-9.54-8.41-16.13-20.57-16.13M536.21,489h8.63V433.32h-8.63Zm10.11-70.46c0-3.18-2.39-5.45-5.8-5.45s-5.91,2.27-5.91,5.45,2.39,5.57,5.91,5.57a5.43,5.43,0,0,0,5.8-5.57m-47.13,13.87c-8.52,0-15.23,4-18.75,10.79v-9.89h-8.75V489h8.75v-32.5c0-10.46,6.36-17.16,16.25-17.16s16,6.7,16,17.16V489h8.64V455.49c0-14-9-23.07-22.16-23.07m-64.77,0c-8.52,0-15.22,4-18.75,10.79V410.6h-8.75V489h8.75v-32.5c0-10.46,6.37-17.16,16.26-17.16s16,6.7,16,17.16V489h8.63V455.49c0-14-9-23.07-22.16-23.07M394.8,466.17H386a19.94,19.94,0,0,1-19.88,16.25c-11.94,0-20.57-8.86-20.57-21.25S354.22,440,366.16,440A19.94,19.94,0,0,1,386,456.17h8.76c-1.82-13.75-13.87-23.75-28.64-23.75-17.05,0-29.44,12-29.44,28.75S349.11,490,366.16,490c14.77,0,26.82-10,28.64-23.86m-96.38-26.6c10.91,0,19.44,7.28,20.91,17.62h-41.7c1.7-10.45,9.88-17.62,20.79-17.62m29.21,21.6c0-16.71-12.27-28.75-29.32-28.75s-29.43,12-29.43,28.75S281.26,490,298.31,490c13.75,0,25.46-9,28.53-21.36H318a20.2,20.2,0,0,1-19.55,14.21,20.61,20.61,0,0,1-21-19h50a20.65,20.65,0,0,0,.23-2.72M272.74,410.6H213.53v8.29h25V489h9.21V418.89h25Z" transform="translate(-200.24 -279.2)"/><path class="cls-1" d="M749.36,537.36H736.63V523.15H728v14.21H717.65v7.38H728V593h8.64v-48.3h12.73Zm-70.61,49.09c-11.93,0-20.57-8.86-20.57-21.25s8.64-21.14,20.57-21.14,20.46,8.87,20.46,21.14-8.64,21.25-20.46,21.25m20.46-49.09v10.22c-4.89-6.93-12.84-11.13-22.28-11.13-16,0-27.61,12-27.61,28.75s11.59,28.87,27.61,28.87c9.44,0,17.39-4.21,22.28-11.14V593h8.63V537.36Zm-11.93-9.44c2.84,0,4.88-1.81,4.88-4.43a4.58,4.58,0,0,0-4.88-4.55,4.49,4.49,0,0,0-4.78,4.55c0,2.62,1.93,4.43,4.78,4.43m-15.8,0c2.84,0,4.77-1.81,4.77-4.43a4.48,4.48,0,0,0-4.77-4.55,4.59,4.59,0,0,0-4.89,4.55c0,2.62,2,4.43,4.89,4.43m-27,9.44H631.78V523.15h-8.64v14.21H612.8v7.38h10.34V593h8.64v-48.3h12.73ZM594.66,593h8.63V537.36h-8.63Zm10.11-70.46c0-3.18-2.39-5.45-5.8-5.45s-5.9,2.27-5.9,5.45,2.38,5.57,5.9,5.57a5.43,5.43,0,0,0,5.8-5.57m-44.71,13.87c-12.27,0-20.68,6.25-20.68,15.79,0,12.62,11.93,14.89,20.45,16.37,7.16,1.36,13.64,2.39,13.64,9.54,0,5.57-5.34,9.32-13,9.32-8.06,0-13.63-4.09-13.86-10.23h-8.52c.22,9.89,9.2,16.83,22.16,16.83S582,587.36,582,577.7c0-12.84-12.72-15-20.91-16.59-7.15-1.48-13.07-2.62-13.07-9.66,0-5.12,4.89-8.53,11.94-8.53,7.39,0,12.38,3.87,12.61,9.66h8.07c0-9.54-8.41-16.13-20.57-16.13m-50.33,14.43V537.36H501V593h8.75V564.86c0-12.84,7.95-20.23,21.59-20.23v-8.52c-10.45,0-18.07,5.34-21.59,14.77m-50.09-7.28c10.91,0,19.44,7.28,20.92,17.62H438.84c1.71-10.45,9.89-17.62,20.8-17.62m29.21,21.6c0-16.71-12.27-28.75-29.32-28.75s-29.44,12-29.44,28.75,12.39,28.87,29.44,28.87c13.75,0,25.45-9,28.52-21.37h-8.86a20.21,20.21,0,0,1-19.55,14.21,20.6,20.6,0,0,1-21-19h50a21,21,0,0,0,.23-2.73m-71.39-27.84-18.41,47-18.53-47h-9.2L393.82,593h10.34l22.5-55.68ZM353.62,593h8.64V537.36h-8.64Zm10.12-70.46c0-3.18-2.39-5.45-5.8-5.45S352,519.4,352,522.58s2.39,5.57,5.91,5.57a5.43,5.43,0,0,0,5.8-5.57m-47.13,13.87c-8.52,0-15.23,4-18.75,10.79v-9.88h-8.75V593h8.75v-32.5c0-10.45,6.36-17.16,16.25-17.16s16,6.71,16,17.16V593h8.64V559.52c0-14-9-23.07-22.16-23.07m-43.29-21.82h-9.2v49c0,13.29-8.18,21.93-20.91,21.93s-20.8-8.64-20.8-21.93v-49h-9.32v49.43c0,18.07,12.16,30,30.23,30s30-11.94,30-30Z" transform="translate(-200.24 -279.2)"/><path class="cls-1" d="M654.31,690c-11.94,0-20.57-8.87-20.57-21.14s8.63-21.25,20.57-21.25,20.45,8.86,20.45,21.25S666.13,690,654.31,690m20.45-48.19V652c-4.88-6.82-12.84-11-22.39-11-15.91,0-27.5,11.71-27.5,28s11.59,28,27.5,28c9.55,0,17.51-4.21,22.39-11.14v8.75c0,11.48-8.52,19.77-20.34,19.77-8.41,0-16.37-5-18.75-11.7l-8.3-.11c2.73,10.91,14.21,18.86,27.39,18.86,16.71,0,28.64-11.48,28.64-27.27V641.84Zm-76,13.52V641.84h-8.75v55.69h8.75V669.34c0-12.84,8-20.22,21.6-20.22v-8.53c-10.46,0-18.08,5.34-21.6,14.77M575,641.84h-8.76v32.73c0,10.12-6.24,16.71-15.9,16.71s-15.92-6.59-15.92-16.71V641.84H525.7v32.73c0,14.43,9.89,24,24.67,24S575,689,575,674.57Zm-90,49.1c-11.93,0-20.46-8.87-20.46-21.25s8.53-21.14,20.46-21.14,20.46,8.86,20.46,21.14S497,690.94,485,690.94m1.82-50c-9.55,0-17.39,4.21-22.28,11.14v-33h-8.75v78.42h8.75V687.41a26.78,26.78,0,0,0,22.28,11.14c15.91,0,27.61-12.16,27.61-28.86s-11.7-28.76-27.61-28.76m-65.52,0c-8.63,0-15.23,4.21-18.18,11.25-2.73-7-8.87-11.25-17.16-11.25-7.62,0-13.64,3.3-16.82,9.21v-8.3H360.4v55.69h8.76V662.3c0-8.87,5.22-14.32,13.52-14.32,8.53,0,13.52,5.45,13.52,14.32v35.23h8.64V662.3c0-8.87,5.23-14.32,13.64-14.32s13.41,5.45,13.41,14.32v35.23h8.64V661.28c0-12.5-7.62-20.35-19.21-20.35m-105.52,50c-11.93,0-20.57-8.87-20.57-21.25s8.64-21.14,20.57-21.14,20.46,8.86,20.46,21.14-8.64,21.25-20.46,21.25m20.46-49.1v10.23c-4.89-6.93-12.85-11.14-22.28-11.14-16,0-27.61,12.05-27.61,28.76S298,698.55,314,698.55c9.43,0,17.39-4.2,22.28-11.14v10.12h8.63V641.84Zm-73.19-22.73v35.46H223.18V619.11H214v78.42h9.21V662.87h39.89v34.66h9.32V619.11Z" transform="translate(-200.24 -279.2)"/></svg>